<?xml version="1.0" encoding="utf-8"?>
<!-- Generator: Adobe Illustrator 15.0.2, SVG Export Plug-In . SVG Version: 6.00 Build 0)  -->
<!DOCTYPE svg PUBLIC "-//W3C//DTD SVG 1.1//EN" "http://www.w3.org/Graphics/SVG/1.1/DTD/svg11.dtd">
<svg version="1.1" id="Слой_1" xmlns="http://www.w3.org/2000/svg" xmlns:xlink="http://www.w3.org/1999/xlink" x="0px" y="0px"
	 width="104.745px" height="252.576px" viewBox="0 0 104.745 252.576" enable-background="new 0 0 104.745 252.576"
	 xml:space="preserve">
<g>
	<path fill="#201600" d="M39.171,231.51c-5.073,3.635-10.277,7.067-15.612,10.305c-2.799,1.698,0.595,4.366,2.831,3.01
		c5.335-3.237,10.539-6.67,15.612-10.305C44.648,232.623,41.315,229.974,39.171,231.51L39.171,231.51z"/>
</g>
<g>
	<path fill="#201600" d="M60.258,216.365c-3.366,2.852-6.893,5.484-10.569,7.922c-0.576,0.382-1.748,1.57-0.847,2.243
		c0.896,0.669,2.387,0.011,3.173-0.511c4.017-2.662,7.847-5.573,11.523-8.688c0.632-0.535,1.088-1.719,0.003-2.037
		C62.388,214.956,61.106,215.647,60.258,216.365L60.258,216.365z"/>
</g>
<g>
	<path fill="#201600" d="M79.1,195.635c-2.669,3.663-5.52,7.173-8.531,10.561c-2.183,2.455,1.977,2.874,3.425,1.244
		c3.257-3.664,6.342-7.471,9.229-11.434c0.65-0.893,0.074-1.84-0.95-1.932C81.038,193.963,79.809,194.661,79.1,195.635L79.1,195.635
		z"/>
</g>
<g>
	<path fill="#201600" d="M92.288,171.018c-1.847,4.431-3.95,8.729-6.303,12.913c-1.41,2.507,3.413,3.808,4.731,1.463
		c2.353-4.184,4.456-8.483,6.303-12.913C98.142,169.788,93.334,168.509,92.288,171.018L92.288,171.018z"/>
</g>
<g>
	<path fill="#201600" d="M99.236,145.06c-0.619,4.851-1.574,9.622-2.873,14.337c-0.633,2.299,4.276,2.85,4.798,0.957
		c1.374-4.986,2.419-10.031,3.073-15.163C104.496,143.135,99.51,142.909,99.236,145.06L99.236,145.06z"/>
</g>
<g>
	<path fill="#201600" d="M98.287,116.998c1.09,5.337,1.668,10.702,1.693,16.15c0.013,2.736,4.777,1.236,4.765-1.294
		c-0.025-5.448-0.603-10.813-1.693-16.15C102.489,112.949,97.775,114.493,98.287,116.998L98.287,116.998z"/>
</g>
<g>
	<path fill="#201600" d="M87.957,91.725c2.723,4.178,4.963,8.593,6.794,13.23c0.575,1.457,5.474,0.785,4.752-1.044
		c-1.831-4.637-4.072-9.052-6.794-13.23C91.801,89.289,86.97,90.21,87.957,91.725L87.957,91.725z"/>
</g>
<g>
	<path fill="#201600" d="M74.067,76.167c2.124,1.396,4.1,2.971,5.96,4.703c0.813,0.756,2.163,1.264,3.252,1.388
		c0.957,0.108,1.061-0.37,0.415-0.972c-2.112-1.966-4.39-3.73-6.8-5.315c-0.889-0.584-2.156-1.171-3.251-1.096
		C72.539,74.95,73.728,75.944,74.067,76.167L74.067,76.167z"/>
</g>
<g>
	<path fill="#201600" d="M32.472,72.196c3.448-1.031,6.977-1.657,10.56-1.971c1.154-0.101,0.487-1.328,0.033-1.797
		c-0.766-0.791-2.002-1.511-3.143-1.411c-3.842,0.336-7.578,1.073-11.272,2.177c-1.047,0.313,0.492,1.876,0.776,2.1
		C30.261,71.949,31.404,72.515,32.472,72.196L32.472,72.196z"/>
</g>
<g>
	<path fill="#201600" d="M12.45,88.574c1.873-4.271,4.732-7.877,8.472-10.665c0.615-0.458-2.771-4.008-3.821-3.225
		c-3.74,2.788-6.599,6.394-8.472,10.665C8.082,86.596,12.176,89.2,12.45,88.574L12.45,88.574z"/>
</g>
<g>
	<path fill="#201600" d="M20.463,109.937c-4.475-2.554-7.847-6.521-9.149-11.55c-0.159-0.614-4.538,1.38-4.188,2.73
		c1.351,5.218,4.896,9.144,9.512,11.778C17.664,113.482,21.365,110.451,20.463,109.937L20.463,109.937z"/>
</g>
<g>
	<path fill="#201600" d="M39.057,108.953c-3.143,1.768-6.465,2.897-10.061,3.258c-0.677,0.068,1.841,3.825,3.117,3.696
		c3.72-0.375,7.188-1.552,10.441-3.381C43.104,112.217,40.17,108.327,39.057,108.953L39.057,108.953z"/>
</g>
<g>
	<path fill="#201600" d="M51.685,96.352c-0.966,1.563-2.03,3.054-3.194,4.476c-0.319,0.389,3.845,2.79,4.673,1.778
		c1.164-1.421,2.228-2.913,3.194-4.476C56.725,97.537,52.304,95.351,51.685,96.352L51.685,96.352z"/>
</g>
<g>
	<path fill="#201600" d="M57.79,77.789c-0.045,2.979-0.386,5.907-1.035,8.814c-0.149,0.667,1.704-0.324,1.828-0.395
		c0.65-0.372,2.18-1.167,2.366-2.001c0.649-2.907,0.99-5.836,1.035-8.814c0.01-0.681-1.616,0.274-1.828,0.395
		C59.647,76.08,57.801,77.049,57.79,77.789L57.79,77.789z"/>
</g>
<g>
	<path fill="#201600" d="M52.188,55.1c1.448,3.138,2.648,6.361,3.594,9.686c0.698,2.455,5.416,0.804,4.711-1.676
		c-0.946-3.324-2.146-6.547-3.594-9.686C55.818,51.083,51.123,52.792,52.188,55.1L52.188,55.1z"/>
</g>
<g>
	<path fill="#201600" d="M39.581,36.148c2.211,2.517,4.299,5.13,6.244,7.86c0.688,0.966,5.337-0.367,4.654-1.326
		c-1.944-2.729-4.033-5.342-6.244-7.86C43.401,33.873,38.879,35.348,39.581,36.148L39.581,36.148z"/>
</g>
<g>
	<path fill="#201600" d="M21.805,19.736c2.855,2.334,5.661,4.725,8.392,7.203c1.046,0.949,5.43-1.156,4.357-2.129
		c-2.731-2.479-5.537-4.869-8.392-7.203C25.048,16.696,20.728,18.854,21.805,19.736L21.805,19.736z"/>
</g>
<g>
	<path fill="#201600" d="M0.551,2.839c3.562,2.839,7.17,5.617,10.776,8.399c0.988,0.762,2.34,1.094,3.503,0.478
		c0.938-0.498,1.278-1.796,0.343-2.518c-3.606-2.781-7.215-5.56-10.776-8.399C3.425,0.024,2.044-0.288,0.894,0.322
		C-0.057,0.826-0.369,2.106,0.551,2.839L0.551,2.839z"/>
</g>
<g>
	<path fill="#201600" d="M22.025,229.253c-3.458,6.357-7.215,12.55-10.5,19c-0.653,1.283,1.952,2.935,2.888,3.22
		c7.539,2.292,15.271-0.147,22.93,1.089c1.706,0.274-1.446-3.275-2.739-3.484c-7.334-1.183-14.879,1.275-22.07-0.911
		c0.963,1.073,1.925,2.146,2.888,3.22c3.284-6.451,7.042-12.644,10.5-19C26.67,231.012,22.61,228.179,22.025,229.253L22.025,229.253
		z"/>
</g>
</svg>
