<?xml version="1.0" encoding="utf-8"?>
<!-- Generator: Adobe Illustrator 15.0.2, SVG Export Plug-In . SVG Version: 6.00 Build 0)  -->
<!DOCTYPE svg PUBLIC "-//W3C//DTD SVG 1.1//EN" "http://www.w3.org/Graphics/SVG/1.1/DTD/svg11.dtd">
<svg version="1.1" id="Слой_1" xmlns="http://www.w3.org/2000/svg" xmlns:xlink="http://www.w3.org/1999/xlink" x="0px" y="0px"
	 width="83.242px" height="360.984px" viewBox="0 0 83.242 360.984" enable-background="new 0 0 83.242 360.984"
	 xml:space="preserve">
<g>
	<g>
		<path fill="#201600" d="M70.131,0.011c-12.138,9.74-24.625,19.894-34.5,32c-1.222,1.498,5.625,8.417,5.91,8.066
			c9.874-12.105,22.362-22.26,34.5-32C77.102,7.227,70.991-0.678,70.131,0.011L70.131,0.011z"/>
	</g>
</g>
<g>
	<g>
		<path fill="#201600" d="M27.737,49.306c-6.197,10.383-11.952,21.008-17,32c-1.125,2.449,3.69,3.67,4.698,1.477
			c5.048-10.992,10.803-21.617,17-32C33.792,48.51,28.971,47.239,27.737,49.306L27.737,49.306z"/>
	</g>
</g>
<g>
	<g>
		<path fill="#201600" d="M7.695,96.34c-2.864,10.891-4.136,22.112-7,33c-0.579,2.203,3.069,5.51,3.783,2.794
			c2.864-10.891,4.136-22.112,7-33C12.057,96.931,8.409,93.624,7.695,96.34L7.695,96.34z"/>
	</g>
</g>
<g>
	<g>
		<path fill="#201600" d="M0.261,145.352c0,10,0,20,0,30c0,1.437,4.651,3.025,4.651,1.386c0-10,0-20,0-30
			C4.912,145.3,0.261,143.712,0.261,145.352L0.261,145.352z"/>
	</g>
</g>
<g>
	<g>
		<path fill="#201600" d="M-0.313,191.752c1.06,11.034,2.94,21.966,4,33c0.196,2.04,5.018,3.247,4.799,0.964
			c-1.06-11.034-2.94-21.966-4-33C4.29,190.676-0.532,189.469-0.313,191.752L-0.313,191.752z"/>
	</g>
</g>
<g>
	<g>
		<path fill="#201600" d="M5.75,245.58c3.852,8.81,6.96,17.885,10,27c0.828,2.482,5.629,1.8,4.672-1.07
			c-3.04-9.114-6.148-18.189-10-27C9.378,242.122,4.542,242.816,5.75,245.58L5.75,245.58z"/>
	</g>
</g>
<g>
	<g>
		<path fill="#201600" d="M20.573,288.178c4.243,9.35,9.603,18.021,15.275,26.561c1.544,2.324,5.299,1.302,3.476-1.443
			c-5.436-8.183-10.658-16.477-14.725-25.439C23.576,285.6,19.222,285.2,20.573,288.178L20.573,288.178z"/>
	</g>
</g>
<g>
	<g>
		<path fill="#201600" d="M39.608,323.662c6.29,7.274,13.083,14.079,20.357,20.368c1.59,1.375,6.045,0.02,3.742-1.971
			c-7.018-6.068-13.574-12.613-19.643-19.632C42.741,320.896,37.882,321.666,39.608,323.662L39.608,323.662z"/>
	</g>
</g>
<g>
	<g>
		<path fill="#201600" d="M68.935,326.441c2.44,5.027,4.361,10.217,5.979,15.564c0.436,1.441,4.275,15.096,2.997,15.187
			c-12.087,0.864-24.427-1.347-35.896-5.055c-2.587-0.837,0.245,3.107,1.643,3.559c12.377,4.002,25.45,5.993,38.456,5.063
			c0.546-0.039,0.889-0.35,0.771-0.931c-2.261-11.134-5.167-22.178-10.146-32.436C72.087,326.05,67.733,323.965,68.935,326.441
			L68.935,326.441z"/>
	</g>
</g>
</svg>
