<?xml version="1.0" encoding="utf-8"?>
<!-- Generator: Adobe Illustrator 15.0.2, SVG Export Plug-In . SVG Version: 6.00 Build 0)  -->
<!DOCTYPE svg PUBLIC "-//W3C//DTD SVG 1.1//EN" "http://www.w3.org/Graphics/SVG/1.1/DTD/svg11.dtd">
<svg version="1.1" id="Слой_1" xmlns="http://www.w3.org/2000/svg" xmlns:xlink="http://www.w3.org/1999/xlink" x="0px" y="0px"
	 width="267.909px" height="34.849px" viewBox="0 0 267.909 34.849" enable-background="new 0 0 267.909 34.849"
	 xml:space="preserve">
<g>
	<g>
		<path fill="#201600" d="M16.149,18.878c10.205,0.056,20.277,1.105,30.481,0.255c2.829-0.236,0.461-4.521-1.813-4.332
			c-10.189,0.851-20.288-0.199-30.481-0.255C11.555,14.531,13.902,18.865,16.149,18.878L16.149,18.878z"/>
	</g>
	<g>
		<path fill="#201600" d="M63.853,18.502c9.338,0.255,18.559,0.958,27.877-0.024c2.716-0.286,3.513-3.877,0.232-3.531
			c-8.899,0.938-17.718,0.219-26.635-0.024C62.974,14.857,60.573,18.413,63.853,18.502L63.853,18.502z"/>
	</g>
	<g>
		<path fill="#201600" d="M110.752,17.851c10.942,1.561,21.446,1.108,32.448,1.034c1.5-0.01,5.079-3.183,2.3-3.164
			c-10.685,0.071-20.901,0.526-31.533-0.989C112.484,14.52,108.681,17.556,110.752,17.851L110.752,17.851z"/>
	</g>
	<g>
		<path fill="#201600" d="M164.947,18.871c8.335,0.013,16.55,0.202,24.88-0.238c1.329-0.07,4.883-3.229,3.141-3.137
			c-8.331,0.439-16.545,0.25-24.88,0.238C166.747,15.732,163.14,18.869,164.947,18.871L164.947,18.871z"/>
	</g>
	<g>
		<path fill="#201600" d="M206.338,18.612c13.646,0.092,27.286,0.412,40.932,0.421c2.908,0.002,1.556-4.642-0.799-4.643
			c-13.646-0.01-27.287-0.329-40.932-0.421C202.632,13.95,203.984,18.597,206.338,18.612L206.338,18.612z"/>
	</g>
	<g>
		<path fill="#201600" d="M18.811,1.016C12.627,5.861,6.78,11.098,0.162,15.361c-0.155,0.064-0.199,0.174-0.132,0.327
			c3.541,6.599,11.919,9.253,17.845,13.135c0.972,0.637,5.426,1.618,2.77-0.123c-5.104-3.343-11.868-5.532-15.527-10.64
			C4.637,17.389,21.482,4.451,23.151,3.143C23.821,2.618,19.729,0.296,18.811,1.016L18.811,1.016z"/>
	</g>
	<g>
		<path fill="#201600" d="M241.562,3.754c7.881,4.734,16.838,7.031,24.863,11.453c-0.674-1.289-1.347-2.578-2.02-3.867
			c-6.816,8.044-16.751,14.302-25.821,19.51c-1.422,0.816,1.555,4.792,3.182,3.857c9.07-5.208,19.004-11.466,25.821-19.51
			c1.122-1.324-0.974-3.291-2.02-3.867c-7.703-4.244-16.354-6.386-23.91-10.925C238.85-1.282,239.952,2.787,241.562,3.754
			L241.562,3.754z"/>
	</g>
</g>
</svg>
