<?xml version="1.0" encoding="utf-8"?>
<!-- Generator: Adobe Illustrator 15.0.2, SVG Export Plug-In . SVG Version: 6.00 Build 0)  -->
<!DOCTYPE svg PUBLIC "-//W3C//DTD SVG 1.1//EN" "http://www.w3.org/Graphics/SVG/1.1/DTD/svg11.dtd">
<svg version="1.1" id="Слой_1" xmlns="http://www.w3.org/2000/svg" xmlns:xlink="http://www.w3.org/1999/xlink" x="0px" y="0px"
	 width="76.824px" height="140.915px" viewBox="0 0 76.824 140.915" enable-background="new 0 0 76.824 140.915"
	 xml:space="preserve">
<g>
	<g>
		<path fill="#201600" d="M6.279,140.908c6.346-1.249,12.203-3.932,18.134-6.418c-0.038,0.016-1.517-2.388-2.098-2.145
			c-5.931,2.486-11.788,5.169-18.134,6.418C4.412,138.718,5.53,141.055,6.279,140.908L6.279,140.908z"/>
	</g>
</g>
<g>
	<g>
		<path fill="#201600" d="M6.711,140.073c0.552-5.591-2.391-10.678-3.759-15.949c-0.28-1.078-3.251-1.254-2.928-0.01
			c1.319,5.086,4.257,10.095,3.725,15.484C3.632,140.79,6.598,141.222,6.711,140.073L6.711,140.073z"/>
	</g>
</g>
<g>
	<g>
		<path fill="#201600" d="M9.372,123.986c-0.854,4.991-1.391,9.955-3.751,14.521c-0.29,0.562,2.11,2.199,2.183,2.059
			c2.36-4.565,2.897-9.529,3.751-14.521C11.692,125.238,9.349,124.119,9.372,123.986L9.372,123.986z"/>
	</g>
</g>
<g>
	<g>
		<path fill="#201600" d="M11.945,109.926c-0.708,3.25-1.378,6.507-2.014,9.771c-0.218,1.123,2.694,1.832,2.903,0.758
			c0.635-3.265,1.306-6.521,2.014-9.771C15.09,109.574,12.18,108.847,11.945,109.926L11.945,109.926z"/>
	</g>
</g>
<g>
	<g>
		<path fill="#201600" d="M15.441,95.338c-0.811,3.119-1.583,6.247-2.318,9.385c-0.115,0.489,2.795,1.215,2.897,0.777
			c0.736-3.138,1.507-6.267,2.318-9.385C18.46,95.649,15.559,94.883,15.441,95.338L15.441,95.338z"/>
	</g>
</g>
<g>
	<g>
		<path fill="#201600" d="M20.472,79.205c-1.006,3.304-1.969,6.62-2.896,9.947c-0.234,0.84,1.382,2.93,1.506,2.484
			c0.928-3.326,1.891-6.643,2.896-9.947C22.23,80.858,20.612,78.743,20.472,79.205L20.472,79.205z"/>
	</g>
</g>
<g>
	<g>
		<path fill="#201600" d="M26.108,61.454c-1.559,4.192-3.02,8.418-4.404,12.671c-0.453,1.393,2.047,3.034,2.545,1.506
			c1.385-4.254,2.845-8.48,4.404-12.672C29.165,61.583,26.673,59.936,26.108,61.454L26.108,61.454z"/>
	</g>
</g>
<g>
	<g>
		<path fill="#201600" d="M31.479,48.161c-1.288,2.94-2.517,5.905-3.706,8.887c-0.546,1.368,2.343,2.159,2.902,0.758
			c1.19-2.981,2.418-5.946,3.706-8.887C34.968,47.58,32.083,46.781,31.479,48.161L31.479,48.161z"/>
	</g>
</g>
<g>
	<g>
		<path fill="#201600" d="M40.68,30.698c-2.478,4.156-4.714,8.438-6.795,12.805c-0.794,1.667,2.03,1.384,2.625,0.136
			c1.981-4.158,4.117-8.228,6.475-12.185C43.991,29.765,41.462,29.385,40.68,30.698L40.68,30.698z"/>
	</g>
</g>
<g>
	<g>
		<path fill="#201600" d="M49.806,18.479c-2.233,2.577-4.302,5.28-6.227,8.095c-0.249,0.365,1.09,0.076,1.14,0.061
			c0.53-0.157,1.31-0.397,1.642-0.882c1.858-2.719,3.847-5.335,6.004-7.825c0.406-0.469-0.437-0.337-0.68-0.285
			C51.105,17.766,50.214,18.008,49.806,18.479L49.806,18.479z"/>
	</g>
</g>
<g>
	<g>
		<path fill="#201600" d="M61.306,7.725c-2.637,1.825-5.111,3.843-7.438,6.051c-0.333,0.316,1.014,0.386,1.081,0.385
			c0.527-0.004,1.403-0.014,1.819-0.409c2.238-2.125,4.61-4.089,7.15-5.846c0.509-0.352-0.313-0.459-0.577-0.478
			C62.76,7.389,61.813,7.374,61.306,7.725L61.306,7.725z"/>
	</g>
</g>
<g>
	<g>
		<path fill="#201600" d="M74.957,0.047c-2.716,1.053-5.479,2.113-8.074,3.441c-0.996,0.509,0.493,3.111,1.529,2.58
			c2.595-1.328,5.359-2.388,8.074-3.441C77.481,2.242,76.065-0.383,74.957,0.047L74.957,0.047z"/>
	</g>
</g>
</svg>
