<?xml version="1.0" encoding="utf-8"?>
<!-- Generator: Adobe Illustrator 15.0.2, SVG Export Plug-In . SVG Version: 6.00 Build 0)  -->
<!DOCTYPE svg PUBLIC "-//W3C//DTD SVG 1.1//EN" "http://www.w3.org/Graphics/SVG/1.1/DTD/svg11.dtd">
<svg version="1.1" id="Слой_1" xmlns="http://www.w3.org/2000/svg" xmlns:xlink="http://www.w3.org/1999/xlink" x="0px" y="0px"
	 width="10.735px" height="101.457px" viewBox="0 0 10.735 101.457" enable-background="new 0 0 10.735 101.457"
	 xml:space="preserve">
<g>
	<path fill="#201600" d="M4.541,0.726c0,33.333,0,66.667,0,100c0,0.968,1.5,0.968,1.5,0c0-33.333,0-66.667,0-100
		C6.041-0.242,4.541-0.242,4.541,0.726L4.541,0.726z"/>
</g>
<g>
	<path fill="#201600" d="M6.015,100.925c1.098-4.063,3.151-7.757,4.667-11.667c0.35-0.903-1.102-1.29-1.447-0.398
		c-1.516,3.912-3.567,7.599-4.667,11.667C4.315,101.461,5.762,101.857,6.015,100.925L6.015,100.925z"/>
</g>
<g>
	<path fill="#201600" d="M6.015,100.526c-1.527-3.922-2.021-8.384-4.576-11.847c-0.567-0.769-1.87-0.022-1.295,0.758
		c2.478,3.358,2.943,7.683,4.424,11.487C4.915,101.816,6.365,101.429,6.015,100.526L6.015,100.526z"/>
</g>
</svg>
