<?xml version="1.0" encoding="utf-8"?>
<!-- Generator: Adobe Illustrator 15.0.2, SVG Export Plug-In . SVG Version: 6.00 Build 0)  -->
<!DOCTYPE svg PUBLIC "-//W3C//DTD SVG 1.1//EN" "http://www.w3.org/Graphics/SVG/1.1/DTD/svg11.dtd">
<svg version="1.1" id="Слой_1" xmlns="http://www.w3.org/2000/svg" xmlns:xlink="http://www.w3.org/1999/xlink" x="0px" y="0px"
	 width="538.623px" height="467.903px" viewBox="0 0 538.623 467.903" enable-background="new 0 0 538.623 467.903"
	 xml:space="preserve">
<path fill="#DE3F2C" d="M171.957,226.667c9.333-49.333,72.667-69.333,104.667-101.333c0,8-1.334,16-7.334,20.667
	c14,2,21.334-14,28.668-24c14-18.667,30.666-34,51.999-44c-2.666,6.667-8.666,12-13.333,18c22.667-16.667,48.667-29.333,72.667-44
	c-2,9.333-10.667,18.667-17.334,25.333C437.956,44,483.623,8,538.623,0c-36.15,13.555-60,39.333-82,70.667
	c-20.667,28-43.333,52.667-70,75.333c14-3.333,28.667-12.667,40.667-20c-7.334,12-14,24.667-22,36c-12.667,18-30.667,30-46,45.333
	c10.666-2.667,22-8,32-12c-21.334,26.667-30,49.333-62,66c10.666-6.667,25.333-8.667,37.333-11.333
	c-21.333,16.666-26.667,47.333-49.334,63.333c-18.666,13.333-44.666,21.333-66.666,29.333c-16,6-32.667,8-50,10L171.957,226.667z"/>
<path fill="#E46832" d="M55.289,277.333c7.333,34.667,14.667,61.334,40,87.334c29.333,30.666,51.333,30,89.333,18
	c14.667-5.334,30-10.667,45.333-13.334c9.333-1.333,19.333,0.667,28.667-2.666c26-8,13.333-28,24.667-43.334
	c6.667-8.666,22-13.333,30.667-21.333c11.333-10.667,18-24,22.667-38.667c-16.667,9.334-26,18.667-36,34
	c-6.667,9.334-15.334,18-28,14c20-16.666,25.333-41.333,30-66c-10.667,8-20,18-31.334,25.334
	C287.956,250,296.623,224,313.956,203.333c-12.667,4-26,10.667-36.667,18.667c17.334-16,39.334-38,49.334-59.333
	c-5.334,4.667-12,7.333-19.334,8.667L306.623,172c11.333-15.333,20.666-32.667,30.666-48c-16.666,9.333-34,18.667-50.666,28
	l-18,8.667c-8,4.667-16,9.333-22.667,15.333c2.667-4,6-8.667,8.667-13.333c-21.333,8-38,27.333-52,44.667
	c1.333-3.333,1.333-7.333,2-11.333c-5.333,4-10,8-16,10c14-10.667,14.667-34.667,24.667-48.667C189.289,166,180.623,176,171.956,198
	c-6.667,16.667-24.667,25.333-42.667,24c7.333-6,12.667-14,17.333-22.667c-13.333,5.334-28,8-41.333,14
	c-17.333,8-30.667,23.334-44,36.667c-0.667-4-3.333-7.333-4.667-10.667C49.956,262.667,37.956,294,15.956,308L55.289,277.333z"/>
<path fill="#EFA840" d="M23.29,289.333c-0.667,2.667-0.667,5.334-0.667,8c20.667-30,61.333-33.333,86-58
	c0,3.334,1.333,6.667,0.667,10c4.875-1.083,49.667-13,64-26.333c0,5.619-1.333,10.953-6.667,15.667c12-7.334,31-27.334,49.667-27
	c-3.662,5.333-10.333,9.667-9.667,10.333c2.667-1.333,6.667-2.667,10-4c0,0,0,0.667,0,1.333c23.333-23.333,51.334-44.667,82-56.667
	c-21.334,24-45.333,46.667-65.333,72c5.333-0.667,10.667-3.334,15.333-4.667c0,10.667-8.667,17.333-12.667,26.667
	c3.333-1.334,8-2.667,11.333-4.667c-2.667,2.667-5.333,7.333-8,10c8.667-0.667,18-5.333,25.333-9.333c-5.333,14-18,28-27.333,39.333
	c11.333,0,20.667-11.333,30.667-14.667c-5.334,21.334-16.667,39.334-27.334,58c8,0,16.667-2.666,23.333-6.666
	c-8.667,26-15.333,35.333-36.667,52c6.667,0.666,14,0,20.667-0.667c-6,22-22.667,43.333-45.333,48
	c6-0.667,12.667-1.333,19.333-2.667c-44,32.667-95.333,54.667-150,35.334C24.623,444-4.71,396.627,0.623,347.96
	C3.29,326.627,9.29,306.61,23.29,290V289.333z"/>
<g>
	<g>
		<path fill="#9C4121" d="M101.623,411.833c16,0.5,30.5,7.5,46,8.5c20.92,1.281,46.942-30.61,64.996-50.231
			c0.749-6.667,0.91-13.467,0.504-20.269c-0.084-1.552-0.223-3.086-0.387-4.612c-3.745,10.522-8.637,23.112-20.613,23.112
			c-13.5-0.5-22.5-11.5-33,1.5c-7.5,9-8,28.5-23.5,26c-13-1.5-16-12-30-7.5c-12.5,4.5-19.5,9-26-6.5c-4-10-1-22.5-13-24
			c-10-1.5-17,6.5-18-8c-1-12.5,4-19-2.5-30.5c-2.84-5.025-4.725-8.904-5.406-12.723c-2.018,2.934-3.8,5.931-5.345,8.987
			c0.51,26.401,2.741,52.421,18.751,75.235C66.123,407.833,81.623,411.333,101.623,411.833z"/>
		<path fill="#A26A4F" d="M48.623,349.833c1,14.5,8,6.5,18,8c12,1.5,9,14,13,24c6.5,15.5,13.5,11,26,6.5c14-4.5,17,6,30,7.5
			c15.5,2.5,16-17,23.5-26c10.5-13,19.5-2,33-1.5c11.977,0,16.868-12.59,20.613-23.112c-3.742-34.867-28.081-62.891-61.613-74.388
			c-33-12-71.5-2.5-97.5,21c-5.096,4.691-9.37,9.635-12.906,14.777c0.681,3.818,2.565,7.697,5.406,12.723
			C52.623,330.833,47.623,337.333,48.623,349.833z"/>
		<path fill="#47130D" d="M105.123,435.833c-9-10.5-11-16.5-26-14.5c-16.5,2.5-13.5-1-23-12.5c-7.5-9.5-15.5-13-21-24.5
			c-2.484-5.217-4.476-10.928-6.708-16.52c1.547,9.481,4.37,19.05,8.208,28.52c6.5,17,15.5,37.5,33.5,39
			c9.569,0.798,20.627,6.646,30,8.236c6.006,1.019,11.883,1.793,17.673,2.219C113.253,443.302,108.996,440.069,105.123,435.833z"/>
		<path fill="#631B12" d="M147.623,420.333c-15.5-1-30-8-46-8.5c-20-0.5-35.5-4-47.5-21c-16.01-22.814-18.241-48.834-18.751-75.235
			c-8.207,16.228-9.919,34.063-6.958,52.216c2.233,5.592,4.224,11.303,6.708,16.52c5.5,11.5,13.5,15,21,24.5
			c9.5,11.5,6.5,15,23,12.5c15-2,17,4,26,14.5c3.874,4.236,8.13,7.47,12.673,9.955c18.118,1.331,35.374-0.811,52.955-9.919
			c1.333-4.643,2.533-9.333,4.872-13.036c5.278-8.907,14.256-9.109,22.339-11.23c8.24-12.134,12.97-26.476,14.657-41.501
			C194.565,389.722,168.542,421.614,147.623,420.333z"/>
		<path fill="#642E19" d="M175.623,422.833c-2.339,3.703-3.539,8.394-4.872,13.036c0.957-0.496,1.913-0.999,2.872-1.536
			c10.184-5.94,18.226-13.729,24.339-22.73C189.878,413.723,180.901,413.925,175.623,422.833z"/>
	</g>
	<path fill="#DEAA85" d="M148.123,282.833c-10.5-5-42.5-10-39,11.5c1.5,7,9,9.5,14,14c6.5,6,10.5,15,17,21c8.5,8,36.5,20,48.5,18.5
		c24-3.5,1.5-24-5-31.5c-5.5-6.5-8-14.5-15-20c-6-5.5-14-8.5-20.5-13V282.833z"/>
</g>
</svg>
